<mxfile host="app.diagrams.net" agent="Mozilla/5.0 (X11; Linux x86_64; rv:132.0) Gecko/20100101 Firefox/132.0" version="24.8.6">
  <diagram name="Page-1" id="joVgT1xqafqHVR1AgEgJ">
    <mxGraphModel dx="1434" dy="778" grid="1" gridSize="10" guides="1" tooltips="1" connect="1" arrows="1" fold="1" page="1" pageScale="1" pageWidth="2000" pageHeight="2000" math="0" shadow="0">
      <root>
        <mxCell id="0" />
        <mxCell id="1" parent="0" />
        <mxCell id="vu1Uphu3eMfgY4qjYL7m-6" style="edgeStyle=orthogonalEdgeStyle;rounded=0;orthogonalLoop=1;jettySize=auto;html=1;exitX=0.5;exitY=1;exitDx=0;exitDy=0;entryX=0.5;entryY=0;entryDx=0;entryDy=0;" edge="1" parent="1" source="vu1Uphu3eMfgY4qjYL7m-1" target="vu1Uphu3eMfgY4qjYL7m-5">
          <mxGeometry relative="1" as="geometry" />
        </mxCell>
        <mxCell id="vu1Uphu3eMfgY4qjYL7m-1" value="&lt;div&gt;Start&lt;/div&gt;" style="ellipse;whiteSpace=wrap;html=1;" vertex="1" parent="1">
          <mxGeometry width="120" height="80" as="geometry" />
        </mxCell>
        <mxCell id="vu1Uphu3eMfgY4qjYL7m-9" style="edgeStyle=orthogonalEdgeStyle;rounded=0;orthogonalLoop=1;jettySize=auto;html=1;exitX=0.5;exitY=1;exitDx=0;exitDy=0;entryX=0.5;entryY=0;entryDx=0;entryDy=0;" edge="1" parent="1" source="vu1Uphu3eMfgY4qjYL7m-3" target="vu1Uphu3eMfgY4qjYL7m-8">
          <mxGeometry relative="1" as="geometry" />
        </mxCell>
        <mxCell id="vu1Uphu3eMfgY4qjYL7m-3" value="define polygon as array of pairs of points" style="rounded=0;whiteSpace=wrap;html=1;" vertex="1" parent="1">
          <mxGeometry y="220" width="120" height="60" as="geometry" />
        </mxCell>
        <mxCell id="vu1Uphu3eMfgY4qjYL7m-7" style="edgeStyle=orthogonalEdgeStyle;rounded=0;orthogonalLoop=1;jettySize=auto;html=1;exitX=0.5;exitY=1;exitDx=0;exitDy=0;entryX=0.5;entryY=0;entryDx=0;entryDy=0;" edge="1" parent="1" source="vu1Uphu3eMfgY4qjYL7m-5" target="vu1Uphu3eMfgY4qjYL7m-3">
          <mxGeometry relative="1" as="geometry" />
        </mxCell>
        <mxCell id="vu1Uphu3eMfgY4qjYL7m-5" value="define triangle as array of pairs of points" style="rounded=0;whiteSpace=wrap;html=1;" vertex="1" parent="1">
          <mxGeometry y="120" width="120" height="60" as="geometry" />
        </mxCell>
        <mxCell id="vu1Uphu3eMfgY4qjYL7m-11" style="edgeStyle=orthogonalEdgeStyle;rounded=0;orthogonalLoop=1;jettySize=auto;html=1;exitX=0.5;exitY=1;exitDx=0;exitDy=0;entryX=0.5;entryY=0;entryDx=0;entryDy=0;" edge="1" parent="1" source="vu1Uphu3eMfgY4qjYL7m-8" target="vu1Uphu3eMfgY4qjYL7m-10">
          <mxGeometry relative="1" as="geometry" />
        </mxCell>
        <mxCell id="vu1Uphu3eMfgY4qjYL7m-8" value="&lt;div&gt;square(triangle[0], triangle[1], triangle[2])&lt;/div&gt;" style="shape=process;whiteSpace=wrap;html=1;backgroundOutline=1;" vertex="1" parent="1">
          <mxGeometry y="320" width="120" height="60" as="geometry" />
        </mxCell>
        <mxCell id="vu1Uphu3eMfgY4qjYL7m-13" style="edgeStyle=orthogonalEdgeStyle;rounded=0;orthogonalLoop=1;jettySize=auto;html=1;exitX=0.5;exitY=1;exitDx=0;exitDy=0;entryX=0.5;entryY=0;entryDx=0;entryDy=0;" edge="1" parent="1" source="vu1Uphu3eMfgY4qjYL7m-10" target="vu1Uphu3eMfgY4qjYL7m-12">
          <mxGeometry relative="1" as="geometry" />
        </mxCell>
        <mxCell id="vu1Uphu3eMfgY4qjYL7m-10" value="output square(triangle)" style="shape=parallelogram;perimeter=parallelogramPerimeter;whiteSpace=wrap;html=1;fixedSize=1;" vertex="1" parent="1">
          <mxGeometry y="420" width="120" height="60" as="geometry" />
        </mxCell>
        <mxCell id="vu1Uphu3eMfgY4qjYL7m-15" style="edgeStyle=orthogonalEdgeStyle;rounded=0;orthogonalLoop=1;jettySize=auto;html=1;exitX=0.5;exitY=1;exitDx=0;exitDy=0;entryX=0.5;entryY=0;entryDx=0;entryDy=0;" edge="1" parent="1" source="vu1Uphu3eMfgY4qjYL7m-12" target="vu1Uphu3eMfgY4qjYL7m-14">
          <mxGeometry relative="1" as="geometry" />
        </mxCell>
        <mxCell id="vu1Uphu3eMfgY4qjYL7m-12" value="squaren(triangle)" style="shape=process;whiteSpace=wrap;html=1;backgroundOutline=1;" vertex="1" parent="1">
          <mxGeometry y="520" width="120" height="60" as="geometry" />
        </mxCell>
        <mxCell id="vu1Uphu3eMfgY4qjYL7m-17" style="edgeStyle=orthogonalEdgeStyle;rounded=0;orthogonalLoop=1;jettySize=auto;html=1;exitX=0.5;exitY=1;exitDx=0;exitDy=0;entryX=0.5;entryY=0;entryDx=0;entryDy=0;" edge="1" parent="1" source="vu1Uphu3eMfgY4qjYL7m-14" target="vu1Uphu3eMfgY4qjYL7m-16">
          <mxGeometry relative="1" as="geometry" />
        </mxCell>
        <mxCell id="vu1Uphu3eMfgY4qjYL7m-14" value="output squaren(triangle)" style="shape=parallelogram;perimeter=parallelogramPerimeter;whiteSpace=wrap;html=1;fixedSize=1;" vertex="1" parent="1">
          <mxGeometry y="620" width="120" height="60" as="geometry" />
        </mxCell>
        <mxCell id="vu1Uphu3eMfgY4qjYL7m-20" style="edgeStyle=orthogonalEdgeStyle;rounded=0;orthogonalLoop=1;jettySize=auto;html=1;exitX=0.5;exitY=1;exitDx=0;exitDy=0;entryX=0.5;entryY=0;entryDx=0;entryDy=0;" edge="1" parent="1" source="vu1Uphu3eMfgY4qjYL7m-16" target="vu1Uphu3eMfgY4qjYL7m-18">
          <mxGeometry relative="1" as="geometry" />
        </mxCell>
        <mxCell id="vu1Uphu3eMfgY4qjYL7m-16" value="squaren(polygon)" style="shape=process;whiteSpace=wrap;html=1;backgroundOutline=1;" vertex="1" parent="1">
          <mxGeometry y="720" width="120" height="60" as="geometry" />
        </mxCell>
        <mxCell id="vu1Uphu3eMfgY4qjYL7m-21" style="edgeStyle=orthogonalEdgeStyle;rounded=0;orthogonalLoop=1;jettySize=auto;html=1;exitX=0.5;exitY=1;exitDx=0;exitDy=0;entryX=0.5;entryY=0;entryDx=0;entryDy=0;" edge="1" parent="1" source="vu1Uphu3eMfgY4qjYL7m-18" target="vu1Uphu3eMfgY4qjYL7m-19">
          <mxGeometry relative="1" as="geometry" />
        </mxCell>
        <mxCell id="vu1Uphu3eMfgY4qjYL7m-18" value="output squaren(polygon)" style="shape=parallelogram;perimeter=parallelogramPerimeter;whiteSpace=wrap;html=1;fixedSize=1;" vertex="1" parent="1">
          <mxGeometry y="820" width="120" height="60" as="geometry" />
        </mxCell>
        <mxCell id="vu1Uphu3eMfgY4qjYL7m-19" value="End" style="ellipse;whiteSpace=wrap;html=1;" vertex="1" parent="1">
          <mxGeometry y="920" width="120" height="80" as="geometry" />
        </mxCell>
        <mxCell id="vu1Uphu3eMfgY4qjYL7m-29" style="edgeStyle=orthogonalEdgeStyle;rounded=0;orthogonalLoop=1;jettySize=auto;html=1;exitX=0.5;exitY=1;exitDx=0;exitDy=0;entryX=0.5;entryY=0;entryDx=0;entryDy=0;" edge="1" parent="1" source="vu1Uphu3eMfgY4qjYL7m-22" target="vu1Uphu3eMfgY4qjYL7m-23">
          <mxGeometry relative="1" as="geometry" />
        </mxCell>
        <mxCell id="vu1Uphu3eMfgY4qjYL7m-22" value="&lt;div&gt;template&amp;lt;T&amp;gt;&lt;br&gt;&lt;/div&gt;&lt;div&gt;square(a,b,c)&lt;/div&gt;&lt;div&gt;array&amp;lt;T,2&amp;gt; a,b,c&lt;br&gt;&lt;/div&gt;" style="ellipse;whiteSpace=wrap;html=1;" vertex="1" parent="1">
          <mxGeometry x="240" width="120" height="80" as="geometry" />
        </mxCell>
        <mxCell id="vu1Uphu3eMfgY4qjYL7m-30" style="edgeStyle=orthogonalEdgeStyle;rounded=0;orthogonalLoop=1;jettySize=auto;html=1;exitX=0.5;exitY=1;exitDx=0;exitDy=0;entryX=0.5;entryY=0;entryDx=0;entryDy=0;" edge="1" parent="1" source="vu1Uphu3eMfgY4qjYL7m-23" target="vu1Uphu3eMfgY4qjYL7m-24">
          <mxGeometry relative="1" as="geometry" />
        </mxCell>
        <mxCell id="vu1Uphu3eMfgY4qjYL7m-23" value="A = LEN(b,c)" style="rounded=0;whiteSpace=wrap;html=1;" vertex="1" parent="1">
          <mxGeometry x="240" y="120" width="120" height="60" as="geometry" />
        </mxCell>
        <mxCell id="vu1Uphu3eMfgY4qjYL7m-31" style="edgeStyle=orthogonalEdgeStyle;rounded=0;orthogonalLoop=1;jettySize=auto;html=1;exitX=0.5;exitY=1;exitDx=0;exitDy=0;entryX=0.5;entryY=0;entryDx=0;entryDy=0;" edge="1" parent="1" source="vu1Uphu3eMfgY4qjYL7m-24" target="vu1Uphu3eMfgY4qjYL7m-25">
          <mxGeometry relative="1" as="geometry" />
        </mxCell>
        <mxCell id="vu1Uphu3eMfgY4qjYL7m-24" value="B = LEN(a,c)" style="rounded=0;whiteSpace=wrap;html=1;" vertex="1" parent="1">
          <mxGeometry x="240" y="220" width="120" height="60" as="geometry" />
        </mxCell>
        <mxCell id="vu1Uphu3eMfgY4qjYL7m-32" style="edgeStyle=orthogonalEdgeStyle;rounded=0;orthogonalLoop=1;jettySize=auto;html=1;exitX=0.5;exitY=1;exitDx=0;exitDy=0;entryX=0.5;entryY=0;entryDx=0;entryDy=0;" edge="1" parent="1" source="vu1Uphu3eMfgY4qjYL7m-25" target="vu1Uphu3eMfgY4qjYL7m-26">
          <mxGeometry relative="1" as="geometry" />
        </mxCell>
        <mxCell id="vu1Uphu3eMfgY4qjYL7m-25" value="C = LEN(a,b)" style="rounded=0;whiteSpace=wrap;html=1;" vertex="1" parent="1">
          <mxGeometry x="240" y="320" width="120" height="60" as="geometry" />
        </mxCell>
        <mxCell id="vu1Uphu3eMfgY4qjYL7m-33" style="edgeStyle=orthogonalEdgeStyle;rounded=0;orthogonalLoop=1;jettySize=auto;html=1;exitX=0.5;exitY=1;exitDx=0;exitDy=0;entryX=0.5;entryY=0;entryDx=0;entryDy=0;" edge="1" parent="1" source="vu1Uphu3eMfgY4qjYL7m-26" target="vu1Uphu3eMfgY4qjYL7m-27">
          <mxGeometry relative="1" as="geometry" />
        </mxCell>
        <mxCell id="vu1Uphu3eMfgY4qjYL7m-26" value="S = (A+B+C)/2" style="rounded=0;whiteSpace=wrap;html=1;" vertex="1" parent="1">
          <mxGeometry x="240" y="420" width="120" height="60" as="geometry" />
        </mxCell>
        <mxCell id="vu1Uphu3eMfgY4qjYL7m-34" style="edgeStyle=orthogonalEdgeStyle;rounded=0;orthogonalLoop=1;jettySize=auto;html=1;exitX=0.5;exitY=1;exitDx=0;exitDy=0;entryX=0.5;entryY=0;entryDx=0;entryDy=0;" edge="1" parent="1" source="vu1Uphu3eMfgY4qjYL7m-27" target="vu1Uphu3eMfgY4qjYL7m-28">
          <mxGeometry relative="1" as="geometry" />
        </mxCell>
        <mxCell id="vu1Uphu3eMfgY4qjYL7m-27" value="area = sqrt(S*(S-A)*(S-B)*(S-C))" style="rounded=0;whiteSpace=wrap;html=1;" vertex="1" parent="1">
          <mxGeometry x="240" y="520" width="120" height="60" as="geometry" />
        </mxCell>
        <mxCell id="vu1Uphu3eMfgY4qjYL7m-28" value="return area" style="ellipse;whiteSpace=wrap;html=1;" vertex="1" parent="1">
          <mxGeometry x="240" y="610" width="120" height="80" as="geometry" />
        </mxCell>
        <mxCell id="vu1Uphu3eMfgY4qjYL7m-47" style="edgeStyle=orthogonalEdgeStyle;rounded=0;orthogonalLoop=1;jettySize=auto;html=1;exitX=0.5;exitY=1;exitDx=0;exitDy=0;entryX=0.5;entryY=0;entryDx=0;entryDy=0;" edge="1" parent="1" source="vu1Uphu3eMfgY4qjYL7m-35" target="vu1Uphu3eMfgY4qjYL7m-36">
          <mxGeometry relative="1" as="geometry" />
        </mxCell>
        <mxCell id="vu1Uphu3eMfgY4qjYL7m-35" value="&lt;div&gt;template&amp;lt;T&amp;gt;&lt;/div&gt;&lt;div&gt;squaren(points)&lt;/div&gt;&lt;div&gt;vector&amp;lt;array&amp;lt;T,2&amp;gt;&amp;gt; points&lt;br&gt;&lt;/div&gt;" style="ellipse;whiteSpace=wrap;html=1;" vertex="1" parent="1">
          <mxGeometry x="480" width="120" height="80" as="geometry" />
        </mxCell>
        <mxCell id="vu1Uphu3eMfgY4qjYL7m-48" style="edgeStyle=orthogonalEdgeStyle;rounded=0;orthogonalLoop=1;jettySize=auto;html=1;exitX=0.5;exitY=1;exitDx=0;exitDy=0;entryX=0.5;entryY=0;entryDx=0;entryDy=0;" edge="1" parent="1" source="vu1Uphu3eMfgY4qjYL7m-36" target="vu1Uphu3eMfgY4qjYL7m-37">
          <mxGeometry relative="1" as="geometry" />
        </mxCell>
        <mxCell id="vu1Uphu3eMfgY4qjYL7m-36" value="area = 0" style="rounded=0;whiteSpace=wrap;html=1;" vertex="1" parent="1">
          <mxGeometry x="480" y="120" width="120" height="60" as="geometry" />
        </mxCell>
        <mxCell id="vu1Uphu3eMfgY4qjYL7m-49" style="edgeStyle=orthogonalEdgeStyle;rounded=0;orthogonalLoop=1;jettySize=auto;html=1;exitX=0.5;exitY=1;exitDx=0;exitDy=0;entryX=0.5;entryY=0;entryDx=0;entryDy=0;" edge="1" parent="1" source="vu1Uphu3eMfgY4qjYL7m-37" target="vu1Uphu3eMfgY4qjYL7m-38">
          <mxGeometry relative="1" as="geometry" />
        </mxCell>
        <mxCell id="vu1Uphu3eMfgY4qjYL7m-37" value="last = points.sz-1" style="rounded=0;whiteSpace=wrap;html=1;" vertex="1" parent="1">
          <mxGeometry x="480" y="220" width="120" height="60" as="geometry" />
        </mxCell>
        <mxCell id="vu1Uphu3eMfgY4qjYL7m-50" style="edgeStyle=orthogonalEdgeStyle;rounded=0;orthogonalLoop=1;jettySize=auto;html=1;exitX=0.5;exitY=1;exitDx=0;exitDy=0;entryX=0.5;entryY=0;entryDx=0;entryDy=0;" edge="1" parent="1" source="vu1Uphu3eMfgY4qjYL7m-38" target="vu1Uphu3eMfgY4qjYL7m-39">
          <mxGeometry relative="1" as="geometry" />
        </mxCell>
        <mxCell id="vu1Uphu3eMfgY4qjYL7m-38" value="i = 0" style="rounded=0;whiteSpace=wrap;html=1;" vertex="1" parent="1">
          <mxGeometry x="480" y="320" width="120" height="60" as="geometry" />
        </mxCell>
        <mxCell id="vu1Uphu3eMfgY4qjYL7m-51" value="yes" style="edgeStyle=orthogonalEdgeStyle;rounded=0;orthogonalLoop=1;jettySize=auto;html=1;exitX=0.5;exitY=1;exitDx=0;exitDy=0;entryX=0.5;entryY=0;entryDx=0;entryDy=0;" edge="1" parent="1" source="vu1Uphu3eMfgY4qjYL7m-39" target="vu1Uphu3eMfgY4qjYL7m-40">
          <mxGeometry relative="1" as="geometry" />
        </mxCell>
        <mxCell id="vu1Uphu3eMfgY4qjYL7m-52" value="no" style="edgeStyle=orthogonalEdgeStyle;rounded=0;orthogonalLoop=1;jettySize=auto;html=1;exitX=1;exitY=0.5;exitDx=0;exitDy=0;entryX=0.5;entryY=0;entryDx=0;entryDy=0;" edge="1" parent="1" source="vu1Uphu3eMfgY4qjYL7m-39" target="vu1Uphu3eMfgY4qjYL7m-44">
          <mxGeometry x="-0.92" relative="1" as="geometry">
            <Array as="points">
              <mxPoint x="620" y="440" />
              <mxPoint x="620" y="800" />
              <mxPoint x="540" y="800" />
            </Array>
            <mxPoint as="offset" />
          </mxGeometry>
        </mxCell>
        <mxCell id="vu1Uphu3eMfgY4qjYL7m-39" value="i &amp;lt; last?" style="rhombus;whiteSpace=wrap;html=1;" vertex="1" parent="1">
          <mxGeometry x="500" y="400" width="80" height="80" as="geometry" />
        </mxCell>
        <mxCell id="vu1Uphu3eMfgY4qjYL7m-40" value="area += points[i][0]*points[i+1][1]" style="rounded=0;whiteSpace=wrap;html=1;" vertex="1" parent="1">
          <mxGeometry x="480" y="520" width="120" height="60" as="geometry" />
        </mxCell>
        <mxCell id="vu1Uphu3eMfgY4qjYL7m-41" value="area -= points[i][1]*points[i+1][0]" style="rounded=0;whiteSpace=wrap;html=1;" vertex="1" parent="1">
          <mxGeometry x="480" y="620" width="120" height="60" as="geometry" />
        </mxCell>
        <mxCell id="vu1Uphu3eMfgY4qjYL7m-43" style="edgeStyle=orthogonalEdgeStyle;rounded=0;orthogonalLoop=1;jettySize=auto;html=1;exitX=0;exitY=0.5;exitDx=0;exitDy=0;entryX=0;entryY=0.5;entryDx=0;entryDy=0;" edge="1" parent="1" source="vu1Uphu3eMfgY4qjYL7m-42" target="vu1Uphu3eMfgY4qjYL7m-39">
          <mxGeometry relative="1" as="geometry" />
        </mxCell>
        <mxCell id="vu1Uphu3eMfgY4qjYL7m-42" value="i++" style="rounded=0;whiteSpace=wrap;html=1;" vertex="1" parent="1">
          <mxGeometry x="480" y="720" width="120" height="60" as="geometry" />
        </mxCell>
        <mxCell id="vu1Uphu3eMfgY4qjYL7m-53" style="edgeStyle=orthogonalEdgeStyle;rounded=0;orthogonalLoop=1;jettySize=auto;html=1;exitX=0.5;exitY=1;exitDx=0;exitDy=0;entryX=0.5;entryY=0;entryDx=0;entryDy=0;" edge="1" parent="1" source="vu1Uphu3eMfgY4qjYL7m-44" target="vu1Uphu3eMfgY4qjYL7m-45">
          <mxGeometry relative="1" as="geometry" />
        </mxCell>
        <mxCell id="vu1Uphu3eMfgY4qjYL7m-44" value="area += points[last][0]*points[0][1]" style="rounded=0;whiteSpace=wrap;html=1;" vertex="1" parent="1">
          <mxGeometry x="480" y="820" width="120" height="60" as="geometry" />
        </mxCell>
        <mxCell id="vu1Uphu3eMfgY4qjYL7m-54" style="edgeStyle=orthogonalEdgeStyle;rounded=0;orthogonalLoop=1;jettySize=auto;html=1;exitX=0.5;exitY=1;exitDx=0;exitDy=0;entryX=0.5;entryY=0;entryDx=0;entryDy=0;" edge="1" parent="1" source="vu1Uphu3eMfgY4qjYL7m-45" target="vu1Uphu3eMfgY4qjYL7m-46">
          <mxGeometry relative="1" as="geometry" />
        </mxCell>
        <mxCell id="vu1Uphu3eMfgY4qjYL7m-45" value="area -= points[last][1]*points[0][0]" style="rounded=0;whiteSpace=wrap;html=1;" vertex="1" parent="1">
          <mxGeometry x="480" y="920" width="120" height="60" as="geometry" />
        </mxCell>
        <mxCell id="vu1Uphu3eMfgY4qjYL7m-46" value="return |area/2|" style="ellipse;whiteSpace=wrap;html=1;" vertex="1" parent="1">
          <mxGeometry x="480" y="1020" width="120" height="80" as="geometry" />
        </mxCell>
      </root>
    </mxGraphModel>
  </diagram>
</mxfile>
